<svg width="165" height="68" viewBox="0 0 165 68" fill="none" xmlns="http://www.w3.org/2000/svg">
<path d="M30.65 30.95C31.4167 30.95 32.0333 31.1833 32.5 31.65C32.9667 32.0833 33.2 32.6667 33.2 33.4V44.15C33.2 45.6833 33 46.7667 32.6 47.4C32.2 48.0333 31.3833 48.55 30.15 48.95C28.8167 49.4167 27.2667 49.7833 25.5 50.05C23.7333 50.3167 22.0333 50.45 20.4 50.45C16.7667 50.45 13.6167 49.7333 10.95 48.3C8.28333 46.8667 6.23333 44.8 4.8 42.1C3.4 39.3667 2.7 36.1167 2.7 32.35C2.7 28.65 3.4 25.45 4.8 22.75C6.23333 20.0167 8.25 17.9333 10.85 16.5C13.45 15.0333 16.5167 14.3 20.05 14.3C24.75 14.3 28.6 15.5667 31.6 18.1C32 18.4667 32.2833 18.8333 32.45 19.2C32.65 19.5667 32.75 20 32.75 20.5C32.75 21.2333 32.55 21.85 32.15 22.35C31.75 22.85 31.2667 23.1 30.7 23.1C30.3333 23.1 30 23.05 29.7 22.95C29.4 22.8167 29.05 22.6167 28.65 22.35C27.1833 21.3167 25.8167 20.6 24.55 20.2C23.2833 19.7667 21.85 19.55 20.25 19.55C16.6167 19.55 13.8667 20.6333 12 22.8C10.1667 24.9333 9.25 28.1167 9.25 32.35C9.25 41.0167 13.05 45.35 20.65 45.35C22.9167 45.35 25.1833 45.0333 27.45 44.4V35.55H21.8C21 35.55 20.3667 35.35 19.9 34.95C19.4667 34.55 19.25 33.9833 19.25 33.25C19.25 32.5167 19.4667 31.95 19.9 31.55C20.3667 31.15 21 30.95 21.8 30.95H30.65ZM43.0199 50.3C42.1199 50.3 41.3699 50.05 40.7699 49.55C40.2033 49.0167 39.9199 48.2667 39.9199 47.3V28C39.9199 27.0333 40.2033 26.3 40.7699 25.8C41.3699 25.3 42.1199 25.05 43.0199 25.05C43.9199 25.05 44.6699 25.3 45.2699 25.8C45.8699 26.3 46.1699 27.0333 46.1699 28V47.3C46.1699 48.2667 45.8699 49.0167 45.2699 49.55C44.6699 50.05 43.9199 50.3 43.0199 50.3ZM43.0199 20.6C41.8866 20.6 40.9866 20.3 40.3199 19.7C39.6533 19.0667 39.3199 18.25 39.3199 17.25C39.3199 16.25 39.6533 15.45 40.3199 14.85C40.9866 14.25 41.8866 13.95 43.0199 13.95C44.1199 13.95 45.0033 14.25 45.6699 14.85C46.3699 15.45 46.7199 16.25 46.7199 17.25C46.7199 18.25 46.3866 19.0667 45.7199 19.7C45.0533 20.3 44.1533 20.6 43.0199 20.6ZM64.9652 19.4C63.4319 19.5 62.3152 19.9667 61.6152 20.8C60.9152 21.6333 60.5652 22.8333 60.5652 24.4V25.55H64.8152C66.6819 25.55 67.6152 26.3333 67.6152 27.9C67.6152 29.4667 66.6819 30.25 64.8152 30.25H60.5652V47.3C60.5652 48.2667 60.2652 49 59.6652 49.5C59.0986 50 58.3652 50.25 57.4652 50.25C56.5652 50.25 55.8152 50 55.2152 49.5C54.6152 49 54.3152 48.2667 54.3152 47.3V30.25H51.8152C49.9486 30.25 49.0152 29.4667 49.0152 27.9C49.0152 26.3333 49.9486 25.55 51.8152 25.55H54.3152V25.2C54.3152 22.0667 55.1319 19.6167 56.7652 17.85C58.4319 16.05 60.7652 15.0333 63.7652 14.8L65.0652 14.7C66.3986 14.6 67.3319 14.75 67.8652 15.15C68.4319 15.5167 68.7152 16.1 68.7152 16.9C68.7152 18.3333 67.8986 19.1333 66.2652 19.3L64.9652 19.4ZM81.868 45.65C83.5346 45.75 84.368 46.5 84.368 47.9C84.368 48.7 84.0346 49.3167 83.368 49.75C82.7346 50.15 81.818 50.3167 80.618 50.25L79.268 50.15C73.668 49.75 70.868 46.75 70.868 41.15V30.25H68.368C67.468 30.25 66.768 30.05 66.268 29.65C65.8013 29.25 65.568 28.6667 65.568 27.9C65.568 27.1333 65.8013 26.55 66.268 26.15C66.768 25.75 67.468 25.55 68.368 25.55H70.868V20.95C70.868 20.05 71.1513 19.3333 71.718 18.8C72.2846 18.2667 73.0513 18 74.018 18C74.9513 18 75.7013 18.2667 76.268 18.8C76.8346 19.3333 77.118 20.05 77.118 20.95V25.55H81.368C82.268 25.55 82.9513 25.75 83.418 26.15C83.918 26.55 84.168 27.1333 84.168 27.9C84.168 28.6667 83.918 29.25 83.418 29.65C82.9513 30.05 82.268 30.25 81.368 30.25H77.118V41.6C77.118 44.0667 78.2513 45.3833 80.518 45.55L81.868 45.65Z" fill="#FF0000"/>
<path d="M119.475 14.5C120.408 14.5 121.158 14.8 121.725 15.4C122.292 15.9667 122.575 16.7333 122.575 17.7V47.3C122.575 48.2333 122.308 48.9667 121.775 49.5C121.242 50.0333 120.542 50.3 119.675 50.3C118.808 50.3 118.125 50.0333 117.625 49.5C117.125 48.9667 116.875 48.2333 116.875 47.3V26.7L108.375 42.8C107.975 43.5333 107.542 44.0833 107.075 44.45C106.608 44.7833 106.058 44.95 105.425 44.95C104.792 44.95 104.242 44.7833 103.775 44.45C103.308 44.1167 102.875 43.5667 102.475 42.8L93.925 26.95V47.3C93.925 48.2 93.6583 48.9333 93.125 49.5C92.625 50.0333 91.9417 50.3 91.075 50.3C90.2083 50.3 89.525 50.0333 89.025 49.5C88.525 48.9667 88.275 48.2333 88.275 47.3V17.7C88.275 16.7333 88.5417 15.9667 89.075 15.4C89.6417 14.8 90.3917 14.5 91.325 14.5C92.625 14.5 93.6417 15.2167 94.375 16.65L105.475 37.8L116.525 16.65C117.258 15.2167 118.242 14.5 119.475 14.5ZM149.016 43.3C149.583 43.3 150.033 43.5167 150.366 43.95C150.733 44.3833 150.916 44.9667 150.916 45.7C150.916 46.7333 150.299 47.6 149.066 48.3C147.933 48.9333 146.649 49.45 145.216 49.85C143.783 50.2167 142.416 50.4 141.116 50.4C137.183 50.4 134.066 49.2667 131.766 47C129.466 44.7333 128.316 41.6333 128.316 37.7C128.316 35.2 128.816 32.9833 129.816 31.05C130.816 29.1167 132.216 27.6167 134.016 26.55C135.849 25.4833 137.916 24.95 140.216 24.95C142.416 24.95 144.333 25.4333 145.966 26.4C147.599 27.3667 148.866 28.7333 149.766 30.5C150.666 32.2667 151.116 34.35 151.116 36.75C151.116 38.1833 150.483 38.9 149.216 38.9H134.466C134.666 41.2 135.316 42.9 136.416 44C137.516 45.0667 139.116 45.6 141.216 45.6C142.283 45.6 143.216 45.4667 144.016 45.2C144.849 44.9333 145.783 44.5667 146.816 44.1C147.816 43.5667 148.549 43.3 149.016 43.3ZM140.366 29.35C138.666 29.35 137.299 29.8833 136.266 30.95C135.266 32.0167 134.666 33.55 134.466 35.55H145.766C145.699 33.5167 145.199 31.9833 144.266 30.95C143.333 29.8833 142.033 29.35 140.366 29.35Z" fill="black"/>
</svg>
