<svg width="29" height="30" viewBox="0 0 29 30" fill="none" xmlns="http://www.w3.org/2000/svg">
<path d="M24.4144 7.5H20.7974V5.15625C20.7974 4.12207 19.9864 3.28125 18.989 3.28125H9.94659C8.94911 3.28125 8.13812 4.12207 8.13812 5.15625V7.5H4.52118C4.02102 7.5 3.61694 7.91895 3.61694 8.4375V9.375C3.61694 9.50391 3.71867 9.60938 3.843 9.60938H5.54975L6.2477 24.9316C6.29292 25.9307 7.08977 26.7188 8.05335 26.7188H20.8822C21.8486 26.7188 22.6426 25.9336 22.6878 24.9316L23.3858 9.60938H25.0925C25.2169 9.60938 25.3186 9.50391 25.3186 9.375V8.4375C25.3186 7.91895 24.9145 7.5 24.4144 7.5ZM18.7629 7.5H10.1727V5.39062H18.7629V7.5Z" fill="black"/>
</svg>
