<svg width="29" height="30" viewBox="0 0 29 30" fill="none" xmlns="http://www.w3.org/2000/svg">
<path d="M8.43945 21.2663L13.76 21.2475L25.3727 9.3225C25.8284 8.85 26.0792 8.2225 26.0792 7.555C26.0792 6.8875 25.8284 6.26 25.3727 5.7875L23.4606 3.805C22.5491 2.86 20.9588 2.865 20.0546 3.80125L8.43945 15.7288V21.2663ZM21.7558 5.5725L23.6715 7.55125L21.7461 9.52875L19.834 7.5475L21.7558 5.5725ZM10.8507 16.7712L18.1208 9.305L20.0329 11.2875L12.7641 18.7513L10.8507 18.7575V16.7712Z" fill="black"/>
<path d="M6.02823 26.25H22.9072C24.2371 26.25 25.3185 25.1287 25.3185 23.75V12.915L22.9072 15.415V23.75H9.83565C9.8043 23.75 9.77175 23.7625 9.7404 23.7625C9.70062 23.7625 9.66083 23.7512 9.61984 23.75H6.02823V6.25H14.2833L16.6945 3.75H6.02823C4.6984 3.75 3.61694 4.87125 3.61694 6.25V23.75C3.61694 25.1287 4.6984 26.25 6.02823 26.25Z" fill="black"/>
</svg>
