<svg width="53" height="48" viewBox="0 0 53 48" fill="none" xmlns="http://www.w3.org/2000/svg">
<g clip-path="url(#clip0_4_62)">
<path d="M52.1619 24.5528C52.1619 22.9214 52.0192 21.2811 51.7148 19.6761H27.2956V28.9181H41.2793C40.6991 31.8988 38.8346 34.5356 36.1044 36.2111V42.2078H44.4471C49.3461 38.0278 52.1619 31.8547 52.1619 24.5528Z" fill="#4285F4"/>
<path d="M27.2955 48.0016C34.2779 48.0016 40.1663 45.8764 44.4565 42.2078L36.1138 36.2111C33.7927 37.675 30.7962 38.5039 27.3051 38.5039C20.551 38.5039 14.8244 34.2798 12.7696 28.6006H4.16058V34.7825C8.55546 42.8868 17.5069 48.0016 27.2955 48.0016Z" fill="#34A853"/>
<path d="M12.7601 28.6006C11.6757 25.6199 11.6757 22.3922 12.7601 19.4115V13.2296H4.16061C0.488699 20.0112 0.488699 28.0009 4.16061 34.7825L12.7601 28.6006Z" fill="#FBBC04"/>
<path d="M27.2955 9.49932C30.9865 9.44641 34.5537 10.7339 37.2268 13.0973L44.6182 6.24523C39.938 2.17101 33.7261 -0.068932 27.2955 0.00161733C17.5069 0.00161733 8.55546 5.11644 4.16058 13.2296L12.7601 19.4115C14.8053 13.7235 20.5415 9.49932 27.2955 9.49932Z" fill="#EA4335"/>
</g>
<defs>
<clipPath id="clip0_4_62">
<rect width="51.7778" height="48" fill="white" transform="translate(0.888916)"/>
</clipPath>
</defs>
</svg>
