<svg width="25" height="26" viewBox="0 0 25 26" fill="none" xmlns="http://www.w3.org/2000/svg">
<path d="M4.87492 16.75C5.96824 16.7467 7.0202 16.3317 7.82117 15.5875L15.6462 20.0587C15.384 21.0832 15.4996 22.1679 15.9717 23.1142C16.4439 24.0604 17.2411 24.805 18.2174 25.2115C19.1936 25.618 20.2837 25.6593 21.2879 25.3279C22.2921 24.9964 23.1434 24.3144 23.6858 23.4066C24.2283 22.4988 24.4257 21.426 24.2418 20.3846C24.0579 19.3431 23.5051 18.4028 22.6846 17.7356C21.8641 17.0685 20.8307 16.7192 19.7737 16.7517C18.7167 16.7841 17.7067 17.1962 16.9287 17.9125L9.10367 13.4412C9.18617 13.1287 9.23117 12.805 9.23867 12.4812L16.9262 8.08749C17.6664 8.76095 18.6157 9.15937 19.6149 9.21588C20.614 9.2724 21.6022 8.98358 22.4136 8.39788C23.2251 7.81218 23.8104 6.96524 24.0714 5.99914C24.3325 5.03304 24.2533 4.00655 23.8472 3.0919C23.4411 2.17725 22.7329 1.43008 21.8412 0.975731C20.9495 0.521384 19.9288 0.387509 18.9501 0.596563C17.9714 0.805617 17.0944 1.34488 16.4662 2.12389C15.838 2.9029 15.4969 3.87425 15.4999 4.87499C15.5049 5.23499 15.5537 5.59374 15.6462 5.94124L8.54117 9.99999C8.12915 9.36256 7.55838 8.8433 6.88494 8.4932C6.21151 8.14311 5.45859 7.97424 4.70014 8.00317C3.9417 8.03211 3.20383 8.25786 2.55903 8.65825C1.91423 9.05864 1.38469 9.61989 1.02243 10.2869C0.660168 10.9538 0.477653 11.7036 0.492817 12.4624C0.50798 13.2212 0.7203 13.9631 1.10892 14.615C1.49753 15.267 2.04907 15.8067 2.70935 16.181C3.36963 16.5553 4.11593 16.7514 4.87492 16.75Z" fill="black"/>
</svg>
